<?xml version="1.0" encoding="UTF-8" standalone="no"?> <svg width="64" height="64" viewBox="0 0 64 64" fill="none" xmlns="http://www.w3.org/2000/svg">
<path d="M48.19 49.97C48.1198 49.1496 48.2127 48.3234 48.4633 47.5391C48.7138 46.7547 49.1172 46.0277 49.65 45.4L46.69 42.44L44.4 40.15C43.8364 39.5864 43.5198 38.822 43.5198 38.025C43.5198 37.228 43.8364 36.4636 44.4 35.9C44.9636 35.3364 45.728 35.0198 46.525 35.0198C47.322 35.0198 48.0864 35.3364 48.65 35.9L49.43 36.68L53 40.25V3H13V50H48.17L48.19 49.97ZM25 44H19V38H25V44ZM25 34H19V28H25V34ZM25 24H19V18H25V24ZM19 13V7H47V13H19Z" fill="#9BC9FF"/>
<path d="M47 14H19C18.7348 14 18.4804 13.8946 18.2929 13.7071C18.1054 13.5196 18 13.2652 18 13V7C18 6.73478 18.1054 6.48043 18.2929 6.29289C18.4804 6.10536 18.7348 6 19 6H47C47.2652 6 47.5196 6.10536 47.7071 6.29289C47.8946 6.48043 48 6.73478 48 7V13C48 13.2652 47.8946 13.5196 47.7071 13.7071C47.5196 13.8946 47.2652 14 47 14ZM20 12H46V8H20V12Z" fill="#1E81CE"/>
<path d="M19 24.9999H25C25.2652 24.9999 25.5196 24.8946 25.7071 24.707C25.8946 24.5195 26 24.2651 26 23.9999C26 23.7347 25.8946 23.4803 25.7071 23.2928C25.5196 23.1053 25.2652 22.9999 25 22.9999H20V18.9999H24.586L23 20.5859L21.707 19.2929C21.6148 19.1974 21.5044 19.1212 21.3824 19.0688C21.2604 19.0164 21.1292 18.9888 20.9964 18.9877C20.8636 18.9865 20.7319 19.0118 20.609 19.0621C20.4862 19.1124 20.3745 19.1866 20.2806 19.2805C20.1867 19.3744 20.1125 19.4861 20.0622 19.609C20.0119 19.7319 19.9866 19.8635 19.9877 19.9963C19.9889 20.1291 20.0165 20.2603 20.0689 20.3823C20.1213 20.5043 20.1975 20.6147 20.293 20.7069L22.293 22.7069C22.4805 22.8944 22.7348 22.9997 23 22.9997C23.2652 22.9997 23.5195 22.8944 23.707 22.7069L28.707 17.7069C28.8892 17.5183 28.99 17.2657 28.9877 17.0035C28.9854 16.7413 28.8802 16.4905 28.6948 16.3051C28.5094 16.1197 28.2586 16.0145 27.9964 16.0122C27.7342 16.01 27.4816 16.1108 27.293 16.2929L25.931 17.6549C25.8608 17.464 25.7341 17.2991 25.5678 17.182C25.4015 17.065 25.2034 17.0015 25 16.9999H19C18.7348 16.9999 18.4804 17.1053 18.2929 17.2928C18.1054 17.4803 18 17.7347 18 17.9999V23.9999C18 24.2651 18.1054 24.5195 18.2929 24.707C18.4804 24.8946 18.7348 24.9999 19 24.9999Z" fill="#1E81CE"/>
<path d="M27.293 26.2929L25.931 27.6549C25.8608 27.464 25.7341 27.2991 25.5678 27.182C25.4015 27.065 25.2034 27.0015 25 26.9999H19C18.7348 26.9999 18.4804 27.1053 18.2929 27.2928C18.1054 27.4803 18 27.7347 18 27.9999V33.9999C18 34.2651 18.1054 34.5195 18.2929 34.707C18.4804 34.8946 18.7348 34.9999 19 34.9999H25C25.2652 34.9999 25.5196 34.8946 25.7071 34.707C25.8946 34.5195 26 34.2651 26 33.9999C26 33.7347 25.8946 33.4803 25.7071 33.2928C25.5196 33.1053 25.2652 32.9999 25 32.9999H20V28.9999H24.586L23 30.5859L21.707 29.2929C21.6148 29.1974 21.5044 29.1212 21.3824 29.0688C21.2604 29.0164 21.1292 28.9888 20.9964 28.9877C20.8636 28.9865 20.7319 29.0118 20.609 29.0621C20.4862 29.1124 20.3745 29.1866 20.2806 29.2805C20.1867 29.3744 20.1125 29.4861 20.0622 29.609C20.0119 29.7319 19.9866 29.8635 19.9877 29.9963C19.9889 30.1291 20.0165 30.2603 20.0689 30.3823C20.1213 30.5043 20.1975 30.6147 20.293 30.7069L22.293 32.7069C22.4805 32.8944 22.7348 32.9997 23 32.9997C23.2652 32.9997 23.5195 32.8944 23.707 32.7069L28.707 27.7069C28.8892 27.5183 28.99 27.2657 28.9877 27.0035C28.9854 26.7413 28.8802 26.4905 28.6948 26.3051C28.5094 26.1197 28.2586 26.0145 27.9964 26.0122C27.7342 26.01 27.4816 26.1108 27.293 26.2929Z" fill="#1E81CE"/>
<path d="M27.293 36.2929L25.931 37.6549C25.8608 37.464 25.7341 37.2991 25.5678 37.182C25.4015 37.065 25.2034 37.0015 25 36.9999H19C18.7348 36.9999 18.4804 37.1053 18.2929 37.2928C18.1054 37.4803 18 37.7347 18 37.9999V43.9999C18 44.2651 18.1054 44.5195 18.2929 44.707C18.4804 44.8946 18.7348 44.9999 19 44.9999H25C25.2652 44.9999 25.5196 44.8946 25.7071 44.707C25.8946 44.5195 26 44.2651 26 43.9999C26 43.7347 25.8946 43.4803 25.7071 43.2928C25.5196 43.1053 25.2652 42.9999 25 42.9999H20V38.9999H24.586L23 40.5859L21.707 39.2929C21.6148 39.1974 21.5044 39.1212 21.3824 39.0688C21.2604 39.0164 21.1292 38.9888 20.9964 38.9877C20.8636 38.9865 20.7319 39.0118 20.609 39.0621C20.4862 39.1124 20.3745 39.1866 20.2806 39.2805C20.1867 39.3744 20.1125 39.4861 20.0622 39.609C20.0119 39.7319 19.9866 39.8635 19.9877 39.9963C19.9889 40.1291 20.0165 40.2603 20.0689 40.3823C20.1213 40.5043 20.1975 40.6147 20.293 40.7069L22.293 42.7069C22.4805 42.8944 22.7348 42.9997 23 42.9997C23.2652 42.9997 23.5195 42.8944 23.707 42.7069L28.707 37.7069C28.8892 37.5183 28.99 37.2657 28.9877 37.0035C28.9854 36.7413 28.8802 36.4905 28.6948 36.3051C28.5094 36.1197 28.2586 36.0145 27.9964 36.0122C27.7342 36.01 27.4816 36.1108 27.293 36.2929V36.2929Z" fill="#1E81CE"/>
<path d="M47 25H31C30.7348 25 30.4804 24.8946 30.2929 24.7071C30.1054 24.5196 30 24.2652 30 24C30 23.7348 30.1054 23.4804 30.2929 23.2929C30.4804 23.1054 30.7348 23 31 23H47C47.2652 23 47.5196 23.1054 47.7071 23.2929C47.8946 23.4804 48 23.7348 48 24C48 24.2652 47.8946 24.5196 47.7071 24.7071C47.5196 24.8946 47.2652 25 47 25Z" fill="#1E81CE"/>
<path d="M47 25H31C30.7348 25 30.4804 24.8946 30.2929 24.7071C30.1054 24.5196 30 24.2652 30 24C30 23.7348 30.1054 23.4804 30.2929 23.2929C30.4804 23.1054 30.7348 23 31 23H47C47.2652 23 47.5196 23.1054 47.7071 23.2929C47.8946 23.4804 48 23.7348 48 24C48 24.2652 47.8946 24.5196 47.7071 24.7071C47.5196 24.8946 47.2652 25 47 25Z" fill="#1E81CE"/>
<path d="M40 35H31C30.7348 35 30.4804 34.8946 30.2929 34.7071C30.1054 34.5196 30 34.2652 30 34C30 33.7348 30.1054 33.4804 30.2929 33.2929C30.4804 33.1054 30.7348 33 31 33H40C40.2652 33 40.5196 33.1054 40.7071 33.2929C40.8946 33.4804 41 33.7348 41 34C41 34.2652 40.8946 34.5196 40.7071 34.7071C40.5196 34.8946 40.2652 35 40 35Z" fill="#1E81CE"/>
<path d="M59.364 34.12L54 28.756V3C54 2.73478 53.8946 2.48043 53.7071 2.29289C53.5196 2.10536 53.2652 2 53 2H13C12.7348 2 12.4804 2.10536 12.2929 2.29289C12.1054 2.48043 12 2.73478 12 3V50C12 50.2652 12.1054 50.5196 12.2929 50.7071C12.4804 50.8946 12.7348 51 13 51H41.874C41.4701 53.6898 42.0856 56.4336 43.6 58.693L44 59.301V61C44 61.2652 44.1054 61.5196 44.2929 61.7071C44.4804 61.8946 44.7348 62 45 62C45.2652 62 45.5196 61.8946 45.7071 61.7071C45.8946 61.5196 46 61.2652 46 61V59C45.9999 58.8033 45.9419 58.6109 45.833 58.447L45.261 57.584C43.9672 55.6504 43.4806 53.2875 43.905 51H47.316C47.5506 52.1145 48.0427 53.1587 48.753 54.049L49.223 54.629C49.3043 54.7348 49.406 54.8232 49.522 54.8891C49.6381 54.955 49.7661 54.997 49.8986 55.0126C50.0312 55.0283 50.1655 55.0172 50.2936 54.9801C50.4218 54.9431 50.5413 54.8807 50.645 54.7968C50.7487 54.7128 50.8346 54.6089 50.8975 54.4913C50.9605 54.3736 50.9992 54.2446 51.0115 54.1117C51.0238 53.9788 51.0094 53.8449 50.9691 53.7176C50.9289 53.5904 50.8635 53.4726 50.777 53.371L50.312 52.796C49.5426 51.8349 49.1317 50.636 49.15 49.405C49.1682 48.1741 49.6144 46.9878 50.412 46.05C50.5756 45.8587 50.661 45.6127 50.6512 45.3611C50.6414 45.1096 50.537 44.871 50.359 44.693L45.11 39.446C44.7378 39.069 44.5284 38.5609 44.5269 38.0311C44.5254 37.5013 44.7319 36.9921 45.102 36.613C45.4855 36.25 45.9932 36.0472 46.5213 36.0461C47.0494 36.0449 47.558 36.2456 47.943 36.607L55.013 43.677C55.2016 43.8592 55.4542 43.96 55.7164 43.9577C55.9786 43.9554 56.2294 43.8502 56.4148 43.6648C56.6002 43.4794 56.7054 43.2286 56.7077 42.9664C56.71 42.7042 56.6092 42.4516 56.427 42.263L54 39.836V31.584L57.95 35.534C58.6018 36.1827 59.1186 36.9542 59.4705 37.8038C59.8223 38.6534 60.0023 39.5644 60 40.484V54.184C60.0013 55.1715 59.7089 56.1371 59.16 56.958L58.507 57.939C58.1763 58.4358 58.0022 59.0203 58.007 59.617L58.014 61.006C58.0153 61.2703 58.1213 61.5234 58.3087 61.7099C58.496 61.8963 58.7496 62.001 59.014 62.001H59.019C59.2828 61.9986 59.535 61.8921 59.7206 61.7046C59.9063 61.5171 60.0103 61.2638 60.01 61L60 59.606C59.9993 59.4068 60.0578 59.2119 60.168 59.046L60.821 58.066C61.5905 56.9173 62.0009 55.5656 62 54.183V40.483C62.0031 39.3008 61.7717 38.1297 61.3193 37.0375C60.8668 35.9453 60.2022 34.9537 59.364 34.12V34.12ZM49.351 35.187C48.5872 34.4604 47.5729 34.056 46.5187 34.0577C45.4645 34.0594 44.4515 34.467 43.69 35.196C42.9463 35.9504 42.5295 36.9672 42.5295 38.0265C42.5295 39.0858 42.9463 40.1026 43.69 40.857L48.331 45.5C47.6531 46.5482 47.2577 47.7539 47.183 49H14V4H52V37.836L49.351 35.187Z" fill="#1E81CE"/>
<path d="M30 44C30 44.2652 30.1054 44.5196 30.2929 44.7071C30.4804 44.8946 30.7348 45 31 45H43C43.2652 45 43.5196 44.8946 43.7071 44.7071C43.8946 44.5196 44 44.2652 44 44C44 43.7348 43.8946 43.4804 43.7071 43.2929C43.5196 43.1054 43.2652 43 43 43H31C30.7348 43 30.4804 43.1054 30.2929 43.2929C30.1054 43.4804 30 43.7348 30 44Z" fill="#1E81CE"/>
<path d="M47 21H31C30.7348 21 30.4804 20.8946 30.2929 20.7071C30.1054 20.5196 30 20.2652 30 20C30 19.7348 30.1054 19.4804 30.2929 19.2929C30.4804 19.1054 30.7348 19 31 19H47C47.2652 19 47.5196 19.1054 47.7071 19.2929C47.8946 19.4804 48 19.7348 48 20C48 20.2652 47.8946 20.5196 47.7071 20.7071C47.5196 20.8946 47.2652 21 47 21Z" fill="#1E81CE"/>
<path d="M47 31H31C30.7348 31 30.4804 30.8946 30.2929 30.7071C30.1054 30.5196 30 30.2652 30 30C30 29.7348 30.1054 29.4804 30.2929 29.2929C30.4804 29.1054 30.7348 29 31 29H47C47.2652 29 47.5196 29.1054 47.7071 29.2929C47.8946 29.4804 48 29.7348 48 30C48 30.2652 47.8946 30.5196 47.7071 30.7071C47.5196 30.8946 47.2652 31 47 31Z" fill="#1E81CE"/>
<path d="M40 41H31C30.7348 41 30.4804 40.8946 30.2929 40.7071C30.1054 40.5196 30 40.2652 30 40C30 39.7348 30.1054 39.4804 30.2929 39.2929C30.4804 39.1054 30.7348 39 31 39H40C40.2652 39 40.5196 39.1054 40.7071 39.2929C40.8946 39.4804 41 39.7348 41 40C41 40.2652 40.8946 40.5196 40.7071 40.7071C40.5196 40.8946 40.2652 41 40 41Z" fill="#1E81CE"/>
</svg>
