<?xml version="1.0" encoding="UTF-8" standalone="no"?> <svg xmlns="http://www.w3.org/2000/svg" viewBox="0 0 64 64"><g id="graduation_hat-education-Bill-Invoice-Payment-Receipt" data-name="graduation hat-education-Bill-Invoice-Payment-Receipt"><path d="M15,55a3,3,0,0,1,3,3v3H12V58A3,3,0,0,1,15,55Z" style="fill:#78b9eb"/><path d="M11,28v6a4,4,0,0,1-8,0V26h8Z" style="fill:#78b9eb"/><path d="M19,34v4H7a3.995,3.995,0,0,0,4-4V7a4,4,0,1,1,8,0V34Z" style="fill:#78b9eb"/><path d="M19,41.5,37,31,58,43.25,61,45l-3,1.5L49,51V45c0-2.21-5.37-4-12-4s-12,1.79-12,4v6l-6-3-4-2-2-1Z" style="fill:#78b9eb"/><path d="M37,51c-6.63,0-12,1.79-12,4V45c0-2.21,5.37-4,12-4s12,1.79,12,4V55C49,52.79,43.63,51,37,51Z" style="fill:#78b9eb"/><ellipse cx="37" cy="55" rx="12" ry="4" style="fill:#78b9eb"/><path d="M61.5,44.14,59,42.68V7a5,5,0,0,0-5-5H15a5,5,0,0,0-5,5V25H3a1,1,0,0,0-1,1v8a5,5,0,0,0,5,5H18v1.93l-5.5,3.21a1,1,0,0,0-.5.89.979.979,0,0,0,.55.86l1.45.73v7.52A4,4,0,0,0,11,58v3a1,1,0,0,0,1,1h6a1,1,0,0,0,1-1V58a4,4,0,0,0-3-3.86V47.62l2,1V53a1,1,0,0,0,1,1h5v1c0,3.28,6.54,5,13,5s13-1.72,13-5V54h8a1,1,0,0,0,1-1V47.12l2.45-1.23a.979.979,0,0,0,.55-.86A1,1,0,0,0,61.5,44.14ZM10,34a3,3,0,0,1-6,0V27h6ZM54,4a3.009,3.009,0,0,1,3,3V41.51L37.5,30.14a.948.948,0,0,0-1,0L20,39.76V7a4.924,4.924,0,0,0-1.03-3ZM10.97,37A4.924,4.924,0,0,0,12,34V7a3,3,0,0,1,6,0V37ZM17,58v2H13V58a2,2,0,0,1,1-1.72V58h2V56.28A2,2,0,0,1,17,58Zm7-6H20V49.62l4,2Zm13,6c-7.12,0-11-1.98-11-3s3.88-3,11-3,11,1.98,11,3S44.12,58,37,58Zm11-5.78C45.57,50.76,41.28,50,37,50s-8.57.76-11,2.22V45c0-1.02,3.88-3,11-3s11,1.98,11,3ZM57,52H50v-.38l7-3.5Zm-7-2.62V45c0-3.28-6.54-5-13-5s-13,1.72-13,5v4.38l-8.9-4.45L37,32.16,58.9,44.93Z" style="fill:#006df0"/><rect x="33" y="8" width="20" height="2" style="fill:#006df0"/><rect x="33" y="13" width="20" height="2" style="fill:#006df0"/><rect x="33" y="18" width="20" height="2" style="fill:#006df0"/><rect x="24" y="23" width="29" height="2" style="fill:#006df0"/><rect x="24" y="28" width="9" height="2" style="fill:#006df0"/><path d="M25,19h1v1h2V19h1a1,1,0,0,0,1-1V14a1,1,0,0,0-1-1H26V11h2v1h2V10a1,1,0,0,0-1-1H28V8H26V9H25a1,1,0,0,0-1,1v4a1,1,0,0,0,1,1h3v2H26V16H24v2A1,1,0,0,0,25,19Z" style="fill:#006df0"/></g></svg>